<svg xmlns="http://www.w3.org/2000/svg" viewBox="0 0 32 32">
  <rect width="32" height="32" rx="6" fill="#243f22"/>
  <g transform="translate(16,16) scale(0.8) translate(-14,-20)" stroke="#fbf6ed" stroke-width="1.75" fill="none" stroke-linecap="round" stroke-linejoin="round">
    <path d="M14 35V6"/>
    <path d="M14 17C8 15 5 11 5 6c5 0 9 4 9 11Z"/>
    <path d="M14 25c-6-2-10-6-10-11 6 0 10 5 10 11Z"/>
    <path d="M14 14c6-2 9-6 9-11-5 0-9 4-9 11Z"/>
    <path d="M14 22c6-2 10-6 10-11-6 0-10 5-10 11Z"/>
  </g>
</svg>
